<svg width="75" height="73" viewBox="0 0 75 73" fill="none" xmlns="http://www.w3.org/2000/svg">
<path d="M64.4117 8.14847C70.1117 14.4485 71.2117 24.7485 72.7117 34.7485C74.2117 44.7485 76.2117 54.4485 72.5117 61.0485C68.9117 67.6485 59.6117 71.2485 51.2117 72.0485C42.8117 72.9485 35.3117 71.1485 27.6117 68.8485C19.8117 66.5485 11.8117 63.7485 6.61166 57.7485C1.41166 51.8485 -0.888337 42.8485 0.311663 34.1485C1.51166 25.4485 6.31166 17.0485 13.1117 10.9485C20.0117 4.84847 29.1117 0.848473 38.7117 0.148473C48.4117 -0.651527 58.7117 1.74847 64.4117 8.14847Z" fill="url(#paint0_linear_8_3079)"/>
<defs>
<linearGradient id="paint0_linear_8_3079" x1="0" y1="72.2849" x2="72.2485" y2="-2.29412" gradientUnits="userSpaceOnUse">
<stop stop-color="#F87537"/>
<stop offset="1" stop-color="#FBA81F"/>
</linearGradient>
</defs>
</svg>
